<svg width="1428.75" height="145.8" viewBox="0 0 1428.75 145.8" xmlns="http://www.w3.org/2000/svg">
	<g id="svgGroup" stroke-linecap="round" fill-rule="evenodd" font-size="9pt" stroke="#000" stroke-width="0.25mm" fill="none" style="stroke:#000;stroke-width:0.25mm;fill:none">
		<path d="M 14.25 111 L 0 111 L 0 6.3 A 168.426 168.426 0 0 1 6.469 5.644 A 221.334 221.334 0 0 1 13.575 5.175 Q 21 4.8 28.95 4.8 A 68.937 68.937 0 0 1 38.909 5.481 Q 44.228 6.258 48.707 7.923 A 39.016 39.016 0 0 1 51.15 8.925 A 36.91 36.91 0 0 1 58.772 13.468 A 29.06 29.06 0 0 1 65.1 20.25 A 28.72 28.72 0 0 1 69.869 35.274 A 35.095 35.095 0 0 1 69.9 36.75 A 37.887 37.887 0 0 1 68.838 45.933 A 28.902 28.902 0 0 1 64.35 55.8 A 33.468 33.468 0 0 1 53.023 65.744 A 42.098 42.098 0 0 1 48.9 67.725 A 52.162 52.162 0 0 1 36.766 71.06 A 70.791 70.791 0 0 1 25.95 71.85 A 156.035 156.035 0 0 1 19.147 71.708 A 124.393 124.393 0 0 1 14.25 71.4 L 14.25 111 Z M 14.25 17.4 L 14.25 59.25 A 71.953 71.953 0 0 0 16.198 59.464 Q 17.944 59.634 20.1 59.775 A 102.132 102.132 0 0 0 23.738 59.944 A 136.698 136.698 0 0 0 27.75 60 A 47.746 47.746 0 0 0 35.82 59.362 Q 40.139 58.62 43.595 57.016 A 22.831 22.831 0 0 0 48.45 54 A 19.345 19.345 0 0 0 55.733 39.837 A 25.98 25.98 0 0 0 55.8 37.95 A 21.678 21.678 0 0 0 54.659 30.76 A 18.203 18.203 0 0 0 48.75 22.5 Q 43.146 17.969 33.75 17.04 A 51.87 51.87 0 0 0 28.65 16.8 A 196.687 196.687 0 0 0 23.763 16.859 A 164.905 164.905 0 0 0 21 16.95 A 136.911 136.911 0 0 0 16.676 17.196 A 112.559 112.559 0 0 0 14.25 17.4 Z" id="0" vector-effect="non-scaling-stroke"/>
		<path d="M 136.8 39.3 L 136.8 33 L 149.1 33 L 149.1 92.1 A 18.225 18.225 0 0 0 149.252 94.554 Q 149.637 97.376 150.994 98.806 A 4.448 4.448 0 0 0 151.875 99.525 Q 154.65 101.25 157.95 101.25 L 155.1 111.75 Q 141.055 111.75 137.855 100.62 A 20.385 20.385 0 0 1 137.7 100.05 A 31.961 31.961 0 0 1 133.036 105.189 A 42.747 42.747 0 0 1 128.325 108.825 A 22.392 22.392 0 0 1 120.895 111.98 Q 117.405 112.8 113.25 112.8 Q 103.5 112.8 95.55 107.85 A 34.42 34.42 0 0 1 84.43 96.56 A 41.884 41.884 0 0 1 82.875 93.825 Q 78.15 84.75 78.15 72.45 A 49.713 49.713 0 0 1 79.645 60.047 A 41.952 41.952 0 0 1 82.875 51.45 Q 87.6 42.15 95.925 36.675 A 33.446 33.446 0 0 1 112.717 31.265 A 41.082 41.082 0 0 1 115.05 31.2 A 33.876 33.876 0 0 1 122.24 31.936 A 28.055 28.055 0 0 1 127.275 33.525 A 39.003 39.003 0 0 1 133.705 36.966 A 33.154 33.154 0 0 1 136.8 39.3 Z M 135.6 91.05 L 135.6 49.2 Q 131.55 46.35 126.675 44.625 Q 121.8 42.9 116.4 42.9 A 23.887 23.887 0 0 0 108.943 44.031 A 21.035 21.035 0 0 0 103.725 46.575 A 24.451 24.451 0 0 0 96.196 54.711 A 29.944 29.944 0 0 0 95.1 56.775 A 30.995 30.995 0 0 0 92.47 65.29 A 41.517 41.517 0 0 0 91.95 72 Q 91.95 80.4 95.1 86.925 A 26.403 26.403 0 0 0 99.758 93.744 A 23.545 23.545 0 0 0 103.8 97.125 Q 109.35 100.8 116.25 100.8 Q 121.95 100.8 127.05 98.025 A 29.176 29.176 0 0 0 134.13 92.697 A 27.106 27.106 0 0 0 135.6 91.05 Z" id="1" vector-effect="non-scaling-stroke"/>
		<path d="M 169.2 104.7 L 174.9 93.45 A 27.835 27.835 0 0 0 179.615 96.639 Q 181.948 97.905 184.725 98.925 Q 190.65 101.1 197.4 101.1 A 40.669 40.669 0 0 0 202.024 100.855 Q 206.803 100.307 209.752 98.527 A 11.608 11.608 0 0 0 210.075 98.325 A 11.174 11.174 0 0 0 212.375 96.386 A 7.578 7.578 0 0 0 214.35 91.2 A 10.684 10.684 0 0 0 213.879 87.979 A 9.318 9.318 0 0 0 212.775 85.65 A 9.576 9.576 0 0 0 211.382 84.009 Q 209.756 82.451 207 80.925 Q 203.206 78.825 196.352 76.419 A 155.394 155.394 0 0 0 194.85 75.9 A 69.925 69.925 0 0 1 188.254 73.286 Q 182.104 70.452 178.425 66.975 Q 172.95 61.8 172.95 52.65 A 18.18 18.18 0 0 1 178.872 39.127 A 26.194 26.194 0 0 1 180.825 37.425 Q 188.7 31.2 202.65 31.2 A 61.191 61.191 0 0 1 209.319 31.546 Q 212.892 31.938 216 32.775 A 58.154 58.154 0 0 1 222.202 34.808 A 46.666 46.666 0 0 1 226.5 36.75 L 222.75 47.85 A 36.792 36.792 0 0 0 217.248 45.202 A 45.287 45.287 0 0 0 213.525 43.95 A 37.536 37.536 0 0 0 206.8 42.679 A 47.756 47.756 0 0 0 202.05 42.45 Q 197.046 42.45 193.586 43.746 A 12.764 12.764 0 0 0 190.2 45.6 Q 187.511 47.692 186.607 50.048 A 6.794 6.794 0 0 0 186.15 52.5 A 7.381 7.381 0 0 0 188.393 57.827 A 10.623 10.623 0 0 0 189.3 58.65 Q 192.398 61.158 201.298 64.1 A 126.729 126.729 0 0 0 201.6 64.2 A 101.629 101.629 0 0 1 209.193 67.047 Q 216.413 70.115 220.55 73.543 A 22.42 22.42 0 0 1 222.3 75.15 A 20.396 20.396 0 0 1 228.126 89.02 A 26.842 26.842 0 0 1 228.15 90.15 A 20.81 20.81 0 0 1 226.557 98.424 Q 224.607 102.976 220.273 106.282 A 24.927 24.927 0 0 1 219.675 106.725 Q 212.566 111.821 201.392 112.642 A 60.634 60.634 0 0 1 196.95 112.8 A 59.985 59.985 0 0 1 188.158 112.184 A 46.422 46.422 0 0 1 180.975 110.55 Q 173.85 108.3 169.2 104.7 Z" id="2" vector-effect="non-scaling-stroke"/>
		<path d="M 259.65 111 L 246.15 111 L 246.15 33 L 259.65 33 L 259.65 111 Z M 246.356 16.932 A 8.959 8.959 0 0 0 252.9 19.65 Q 257.25 19.65 259.8 17.025 A 8.665 8.665 0 0 0 261.937 13.325 A 11.266 11.266 0 0 0 262.35 10.2 A 10.887 10.887 0 0 0 262.349 10.078 A 9.091 9.091 0 0 0 259.575 3.525 Q 256.8 0.75 252.9 0.75 A 12.396 12.396 0 0 0 250.416 0.987 A 8.492 8.492 0 0 0 246 3.3 Q 243.45 5.85 243.45 10.2 A 8.987 8.987 0 0 0 244.188 13.828 A 9.965 9.965 0 0 0 246.225 16.8 A 11.203 11.203 0 0 0 246.356 16.932 Z" id="3" vector-effect="non-scaling-stroke"/>
		<path d="M 297.15 111 L 283.65 111 L 283.65 33 L 296.7 33 L 296.7 46.05 Q 300.9 39.75 307.425 35.475 Q 313.95 31.2 322.95 31.2 Q 336.15 31.2 342.675 39.15 Q 348.862 46.689 349.183 58.813 A 50.646 50.646 0 0 1 349.2 60.15 L 349.2 111 L 335.7 111 L 335.7 61.65 Q 335.7 53.25 331.725 48.15 A 12.869 12.869 0 0 0 322.31 43.12 A 18.092 18.092 0 0 0 320.7 43.05 A 19.683 19.683 0 0 0 310.426 45.996 A 26.03 26.03 0 0 0 307.65 47.925 Q 301.5 52.8 297.15 59.4 L 297.15 111 Z" id="4" vector-effect="non-scaling-stroke"/>
		<path d="M 424.05 40.8 L 424.05 0 L 437.55 0 L 437.55 92.1 A 18.225 18.225 0 0 0 437.702 94.554 Q 438.087 97.376 439.444 98.806 A 4.448 4.448 0 0 0 440.325 99.525 Q 443.1 101.25 446.4 101.25 L 443.55 111.75 A 26.78 26.78 0 0 1 437.164 111.049 Q 428.519 108.922 426.15 100.35 A 29.229 29.229 0 0 1 421.905 105.077 Q 419.704 107.071 416.925 108.9 Q 411.33 112.583 402.992 112.788 A 40.375 40.375 0 0 1 402 112.8 Q 392.4 112.8 384.45 107.85 Q 376.5 102.9 371.85 93.825 A 41.299 41.299 0 0 1 367.967 81.911 A 55.831 55.831 0 0 1 367.2 72.45 A 50.91 50.91 0 0 1 368.534 60.579 A 41.944 41.944 0 0 1 371.925 51.3 A 40.936 40.936 0 0 1 378.853 41.414 A 36.279 36.279 0 0 1 384.525 36.6 Q 392.4 31.2 401.85 31.2 A 32.463 32.463 0 0 1 408.259 31.803 A 23.913 23.913 0 0 1 415.275 34.35 A 51.515 51.515 0 0 1 419.146 36.734 Q 420.98 37.986 422.437 39.261 A 24.885 24.885 0 0 1 424.05 40.8 Z M 424.05 91.35 L 424.05 52.65 Q 421.487 49.412 417.104 46.599 A 42.21 42.21 0 0 0 416.1 45.975 Q 411 42.9 404.85 42.9 A 22.419 22.419 0 0 0 397.416 44.1 A 20.077 20.077 0 0 0 392.25 46.8 Q 386.85 50.7 383.925 57.225 A 33.285 33.285 0 0 0 381.315 66.772 A 42.17 42.17 0 0 0 381 72 A 37.135 37.135 0 0 0 381.889 80.279 A 30.491 30.491 0 0 0 384.15 86.775 A 27.307 27.307 0 0 0 388.71 93.545 A 24.183 24.183 0 0 0 392.775 97.05 A 21.145 21.145 0 0 0 405 100.8 Q 410.55 100.8 415.575 98.175 Q 420.6 95.55 424.05 91.35 Z" id="5" vector-effect="non-scaling-stroke"/>
		<path d="M 463.65 83.7 L 463.65 33 L 477.15 33 L 477.15 81.9 Q 477.15 88.003 478.885 92.204 A 15.204 15.204 0 0 0 481.05 95.925 A 12.606 12.606 0 0 0 488.72 100.456 A 19.21 19.21 0 0 0 492.45 100.8 Q 498.6 100.8 504.375 98.325 Q 510.15 95.85 514.65 91.65 L 514.65 33 L 528.15 33 L 528.15 90.75 A 23.402 23.402 0 0 0 528.302 93.53 Q 528.8 97.675 530.925 99.225 Q 533.7 101.25 537 101.25 L 534.15 111.75 A 26.464 26.464 0 0 1 527.841 111.056 Q 519.392 108.979 516.91 100.683 A 20.004 20.004 0 0 1 516.9 100.65 Q 511.65 106.05 504.75 109.425 Q 497.85 112.8 489.9 112.8 Q 483.15 112.8 477.15 109.95 A 21.661 21.661 0 0 1 468.885 102.992 A 27.4 27.4 0 0 1 467.4 100.725 A 24.359 24.359 0 0 1 464.903 94.585 Q 464.12 91.63 463.826 88.117 A 53.058 53.058 0 0 1 463.65 83.7 Z" id="6" vector-effect="non-scaling-stroke"/>
		<path d="M 676.05 106.5 L 662.7 112.8 L 649.65 84.3 Q 645.741 75.889 640.24 71.314 A 24.316 24.316 0 0 0 637.2 69.15 A 29.478 29.478 0 0 0 628.949 65.846 Q 625.262 64.949 620.947 64.725 A 56.771 56.771 0 0 0 618 64.65 L 615.75 64.65 L 615.75 111 L 601.5 111 L 601.5 6.3 A 371.851 371.851 0 0 1 613.045 5.386 A 323.669 323.669 0 0 1 616.725 5.175 A 281.911 281.911 0 0 1 626.2 4.853 A 339.402 339.402 0 0 1 632.25 4.8 Q 651.45 4.8 661.125 12.6 Q 670.78 20.384 670.8 32.649 A 31.288 31.288 0 0 1 670.8 32.7 A 29.82 29.82 0 0 1 669.824 40.53 A 22.008 22.008 0 0 1 664.275 50.325 A 31.534 31.534 0 0 1 656.889 55.841 Q 651.984 58.547 645.45 60.3 A 35.485 35.485 0 0 1 650.593 63.094 A 30.641 30.641 0 0 1 652.65 64.575 Q 655.603 66.895 658.358 70.665 A 43.941 43.941 0 0 1 658.725 71.175 A 46.667 46.667 0 0 1 660.929 74.617 Q 662.775 77.775 664.65 81.9 L 676.05 106.5 Z M 615.75 17.4 L 615.75 52.65 L 632.25 52.65 Q 643.05 52.65 649.8 47.85 Q 656.55 43.05 656.55 34.05 A 14.717 14.717 0 0 0 651.64 22.854 A 19.909 19.909 0 0 0 650.25 21.675 A 20.884 20.884 0 0 0 643.704 18.342 Q 638.831 16.8 632.25 16.8 A 298.818 298.818 0 0 0 627.699 16.833 Q 625.252 16.87 623.1 16.95 Q 619.05 17.1 615.75 17.4 Z" id="8" vector-effect="non-scaling-stroke"/>
		<path d="M 745.95 39.3 L 745.95 33 L 758.25 33 L 758.25 92.1 A 18.225 18.225 0 0 0 758.402 94.554 Q 758.787 97.376 760.144 98.806 A 4.448 4.448 0 0 0 761.025 99.525 Q 763.8 101.25 767.1 101.25 L 764.25 111.75 Q 750.205 111.75 747.005 100.62 A 20.385 20.385 0 0 1 746.85 100.05 A 31.961 31.961 0 0 1 742.186 105.189 A 42.747 42.747 0 0 1 737.475 108.825 A 22.392 22.392 0 0 1 730.045 111.98 Q 726.555 112.8 722.4 112.8 Q 712.65 112.8 704.7 107.85 A 34.42 34.42 0 0 1 693.58 96.56 A 41.884 41.884 0 0 1 692.025 93.825 Q 687.3 84.75 687.3 72.45 A 49.713 49.713 0 0 1 688.795 60.047 A 41.952 41.952 0 0 1 692.025 51.45 Q 696.75 42.15 705.075 36.675 A 33.446 33.446 0 0 1 721.867 31.265 A 41.082 41.082 0 0 1 724.2 31.2 A 33.876 33.876 0 0 1 731.39 31.936 A 28.055 28.055 0 0 1 736.425 33.525 A 39.003 39.003 0 0 1 742.855 36.966 A 33.154 33.154 0 0 1 745.95 39.3 Z M 744.75 91.05 L 744.75 49.2 Q 740.7 46.35 735.825 44.625 Q 730.95 42.9 725.55 42.9 A 23.887 23.887 0 0 0 718.093 44.031 A 21.035 21.035 0 0 0 712.875 46.575 A 24.451 24.451 0 0 0 705.346 54.711 A 29.944 29.944 0 0 0 704.25 56.775 A 30.995 30.995 0 0 0 701.62 65.29 A 41.517 41.517 0 0 0 701.1 72 Q 701.1 80.4 704.25 86.925 A 26.403 26.403 0 0 0 708.908 93.744 A 23.545 23.545 0 0 0 712.95 97.125 Q 718.5 100.8 725.4 100.8 Q 731.1 100.8 736.2 98.025 A 29.176 29.176 0 0 0 743.28 92.697 A 27.106 27.106 0 0 0 744.75 91.05 Z" id="9" vector-effect="non-scaling-stroke"/>
		<path d="M 788.1 84.15 L 788.1 47.55 L 774.6 47.55 L 774.6 35.85 L 788.4 35.85 L 791.25 11.25 L 801.6 11.25 L 801.6 35.85 L 823.2 35.85 L 823.2 47.55 L 801.6 47.55 L 801.6 85.2 Q 801.6 93.9 805.275 97.35 Q 808.95 100.8 814.05 100.8 Q 817.8 100.8 821.175 99.6 A 38.599 38.599 0 0 0 825.942 97.547 A 34.151 34.151 0 0 0 827.4 96.75 L 831.15 107.55 Q 829.111 108.773 826.102 109.962 A 65.048 65.048 0 0 1 823.05 111.075 Q 817.95 112.8 812.4 112.8 A 27.49 27.49 0 0 1 804.627 111.756 A 20.901 20.901 0 0 1 794.625 105.375 Q 789.161 99.158 788.273 88.471 A 52.166 52.166 0 0 1 788.1 84.15 Z" id="10" vector-effect="non-scaling-stroke"/>
		<path d="M 858.15 111 L 844.65 111 L 844.65 0 L 858.15 0 L 858.15 45.45 Q 862.35 39.3 868.8 35.25 A 26.358 26.358 0 0 1 879.487 31.486 A 33.893 33.893 0 0 1 883.95 31.2 Q 897.15 31.2 903.675 39.15 Q 909.862 46.689 910.183 58.813 A 50.646 50.646 0 0 1 910.2 60.15 L 910.2 111 L 896.7 111 L 896.7 61.65 A 29.436 29.436 0 0 0 896.196 56.039 Q 895.551 52.717 894.079 50.095 A 16.474 16.474 0 0 0 892.8 48.15 A 12.63 12.63 0 0 0 883.563 43.13 A 17.969 17.969 0 0 0 881.85 43.05 A 19.844 19.844 0 0 0 871.78 45.85 A 26.378 26.378 0 0 0 868.725 47.925 Q 862.5 52.8 858.15 59.4 L 858.15 111 Z" id="11" vector-effect="non-scaling-stroke"/>
		<path d="M 946.95 111 L 933.45 111 L 933.45 33 L 946.5 33 L 946.5 46.05 Q 950.7 39.75 957.225 35.475 Q 963.75 31.2 972.75 31.2 Q 985.95 31.2 992.475 39.15 Q 998.662 46.689 998.983 58.813 A 50.646 50.646 0 0 1 999 60.15 L 999 111 L 985.5 111 L 985.5 61.65 Q 985.5 53.25 981.525 48.15 A 12.869 12.869 0 0 0 972.11 43.12 A 18.092 18.092 0 0 0 970.5 43.05 A 19.683 19.683 0 0 0 960.226 45.996 A 26.03 26.03 0 0 0 957.45 47.925 Q 951.3 52.8 946.95 59.4 L 946.95 111 Z" id="12" vector-effect="non-scaling-stroke"/>
		<path d="M 1075.65 39.3 L 1075.65 33 L 1087.95 33 L 1087.95 92.1 A 18.225 18.225 0 0 0 1088.102 94.554 Q 1088.487 97.376 1089.844 98.806 A 4.448 4.448 0 0 0 1090.725 99.525 Q 1093.5 101.25 1096.8 101.25 L 1093.95 111.75 Q 1079.905 111.75 1076.705 100.62 A 20.385 20.385 0 0 1 1076.55 100.05 A 31.961 31.961 0 0 1 1071.886 105.189 A 42.747 42.747 0 0 1 1067.175 108.825 A 22.392 22.392 0 0 1 1059.745 111.98 Q 1056.255 112.8 1052.1 112.8 Q 1042.35 112.8 1034.4 107.85 A 34.42 34.42 0 0 1 1023.28 96.56 A 41.884 41.884 0 0 1 1021.725 93.825 Q 1017 84.75 1017 72.45 A 49.713 49.713 0 0 1 1018.495 60.047 A 41.952 41.952 0 0 1 1021.725 51.45 Q 1026.45 42.15 1034.775 36.675 A 33.446 33.446 0 0 1 1051.567 31.265 A 41.082 41.082 0 0 1 1053.9 31.2 A 33.876 33.876 0 0 1 1061.09 31.936 A 28.055 28.055 0 0 1 1066.125 33.525 A 39.003 39.003 0 0 1 1072.555 36.966 A 33.154 33.154 0 0 1 1075.65 39.3 Z M 1074.45 91.05 L 1074.45 49.2 Q 1070.4 46.35 1065.525 44.625 Q 1060.65 42.9 1055.25 42.9 A 23.887 23.887 0 0 0 1047.793 44.031 A 21.035 21.035 0 0 0 1042.575 46.575 A 24.451 24.451 0 0 0 1035.046 54.711 A 29.944 29.944 0 0 0 1033.95 56.775 A 30.995 30.995 0 0 0 1031.32 65.29 A 41.517 41.517 0 0 0 1030.8 72 Q 1030.8 80.4 1033.95 86.925 A 26.403 26.403 0 0 0 1038.608 93.744 A 23.545 23.545 0 0 0 1042.65 97.125 Q 1048.2 100.8 1055.1 100.8 Q 1060.8 100.8 1065.9 98.025 A 29.176 29.176 0 0 0 1072.98 92.697 A 27.106 27.106 0 0 0 1074.45 91.05 Z" id="13" vector-effect="non-scaling-stroke"/>
		<path d="M 1100.55 142.8 L 1103.55 131.55 A 14.861 14.861 0 0 0 1105.297 132.411 Q 1106.531 132.928 1108.05 133.35 A 20.27 20.27 0 0 0 1111.468 133.976 A 26.037 26.037 0 0 0 1114.05 134.1 Q 1120.35 134.1 1125.3 130.05 A 18.005 18.005 0 0 0 1128.199 126.958 Q 1130.822 123.492 1133.311 117.713 A 87.87 87.87 0 0 0 1134.75 114.15 L 1138.2 105.15 L 1131 105.15 L 1100.55 36.6 L 1112.55 31.2 L 1141.65 96.15 L 1164.3 31.8 L 1176.75 36.6 L 1148.1 114.9 Q 1145.044 123.332 1141.617 129.171 A 46.29 46.29 0 0 1 1138.65 133.65 Q 1133.55 140.4 1127.4 143.1 A 32.177 32.177 0 0 1 1117.416 145.631 A 39.058 39.058 0 0 1 1113.75 145.8 Q 1109.25 145.8 1105.875 144.9 A 30.49 30.49 0 0 1 1103.723 144.246 Q 1102.717 143.896 1101.885 143.51 A 12.921 12.921 0 0 1 1100.55 142.8 Z" id="14" vector-effect="non-scaling-stroke"/>
		<path d="M 1240.65 39.3 L 1240.65 33 L 1252.95 33 L 1252.95 92.1 A 18.225 18.225 0 0 0 1253.102 94.554 Q 1253.487 97.376 1254.844 98.806 A 4.448 4.448 0 0 0 1255.725 99.525 Q 1258.5 101.25 1261.8 101.25 L 1258.95 111.75 Q 1244.905 111.75 1241.705 100.62 A 20.385 20.385 0 0 1 1241.55 100.05 A 31.961 31.961 0 0 1 1236.886 105.189 A 42.747 42.747 0 0 1 1232.175 108.825 A 22.392 22.392 0 0 1 1224.745 111.98 Q 1221.255 112.8 1217.1 112.8 Q 1207.35 112.8 1199.4 107.85 A 34.42 34.42 0 0 1 1188.28 96.56 A 41.884 41.884 0 0 1 1186.725 93.825 Q 1182 84.75 1182 72.45 A 49.713 49.713 0 0 1 1183.495 60.047 A 41.952 41.952 0 0 1 1186.725 51.45 Q 1191.45 42.15 1199.775 36.675 A 33.446 33.446 0 0 1 1216.567 31.265 A 41.082 41.082 0 0 1 1218.9 31.2 A 33.876 33.876 0 0 1 1226.09 31.936 A 28.055 28.055 0 0 1 1231.125 33.525 A 39.003 39.003 0 0 1 1237.555 36.966 A 33.154 33.154 0 0 1 1240.65 39.3 Z M 1239.45 91.05 L 1239.45 49.2 Q 1235.4 46.35 1230.525 44.625 Q 1225.65 42.9 1220.25 42.9 A 23.887 23.887 0 0 0 1212.793 44.031 A 21.035 21.035 0 0 0 1207.575 46.575 A 24.451 24.451 0 0 0 1200.046 54.711 A 29.944 29.944 0 0 0 1198.95 56.775 A 30.995 30.995 0 0 0 1196.32 65.29 A 41.517 41.517 0 0 0 1195.8 72 Q 1195.8 80.4 1198.95 86.925 A 26.403 26.403 0 0 0 1203.608 93.744 A 23.545 23.545 0 0 0 1207.65 97.125 Q 1213.2 100.8 1220.1 100.8 Q 1225.8 100.8 1230.9 98.025 A 29.176 29.176 0 0 0 1237.98 92.697 A 27.106 27.106 0 0 0 1239.45 91.05 Z" id="15" vector-effect="non-scaling-stroke"/>
		<path d="M 1342.95 103.5 L 1333.65 112.5 L 1293.3 70.95 L 1293.3 111 L 1279.8 111 L 1279.8 0 L 1293.3 0 L 1293.3 63.45 L 1328.55 31.5 L 1336.35 40.05 L 1306.2 66.75 L 1342.95 103.5 Z" id="16" vector-effect="non-scaling-stroke"/>
		<path d="M 1407.6 39.3 L 1407.6 33 L 1419.9 33 L 1419.9 92.1 A 18.225 18.225 0 0 0 1420.052 94.554 Q 1420.437 97.376 1421.794 98.806 A 4.448 4.448 0 0 0 1422.675 99.525 Q 1425.45 101.25 1428.75 101.25 L 1425.9 111.75 Q 1411.855 111.75 1408.655 100.62 A 20.385 20.385 0 0 1 1408.5 100.05 A 31.961 31.961 0 0 1 1403.836 105.189 A 42.747 42.747 0 0 1 1399.125 108.825 A 22.392 22.392 0 0 1 1391.695 111.98 Q 1388.205 112.8 1384.05 112.8 Q 1374.3 112.8 1366.35 107.85 A 34.42 34.42 0 0 1 1355.23 96.56 A 41.884 41.884 0 0 1 1353.675 93.825 Q 1348.95 84.75 1348.95 72.45 A 49.713 49.713 0 0 1 1350.445 60.047 A 41.952 41.952 0 0 1 1353.675 51.45 Q 1358.4 42.15 1366.725 36.675 A 33.446 33.446 0 0 1 1383.517 31.265 A 41.082 41.082 0 0 1 1385.85 31.2 A 33.876 33.876 0 0 1 1393.04 31.936 A 28.055 28.055 0 0 1 1398.075 33.525 A 39.003 39.003 0 0 1 1404.505 36.966 A 33.154 33.154 0 0 1 1407.6 39.3 Z M 1406.4 91.05 L 1406.4 49.2 Q 1402.35 46.35 1397.475 44.625 Q 1392.6 42.9 1387.2 42.9 A 23.887 23.887 0 0 0 1379.743 44.031 A 21.035 21.035 0 0 0 1374.525 46.575 A 24.451 24.451 0 0 0 1366.996 54.711 A 29.944 29.944 0 0 0 1365.9 56.775 A 30.995 30.995 0 0 0 1363.27 65.29 A 41.517 41.517 0 0 0 1362.75 72 Q 1362.75 80.4 1365.9 86.925 A 26.403 26.403 0 0 0 1370.558 93.744 A 23.545 23.545 0 0 0 1374.6 97.125 Q 1380.15 100.8 1387.05 100.8 Q 1392.75 100.8 1397.85 98.025 A 29.176 29.176 0 0 0 1404.93 92.697 A 27.106 27.106 0 0 0 1406.4 91.05 Z" id="17" vector-effect="non-scaling-stroke"/>
	</g>
</svg>